<svg xmlns="http://www.w3.org/2000/svg" version="1.1" xmlns:xlink="http://www.w3.org/1999/xlink" xmlns:svgjs="http://svgjs.com/svgjs" width="26" height="26" viewBox="0 0 26 26" style="enable-background:new 0 0 26 26;" xml:space="preserve">
  <path d="M9.1,4.6v4.2c0,0.6,0,1.3,0,1.9c0,0.1,0.1,0.2,0.2,0.2c0.8,0,1.6,0,2.4,0c0,0,0-0.1,0-0.1c0-1.4,0-2.9,0-4.3 c0-0.1-0.1-0.2-0.2-0.2C11,6,10.5,5.7,10.1,5.4S9.5,4.9,9.1,4.6 M19.7,10.9v-0.4c0-1.3,0-2.6,0-4c0-0.4,0-0.6-0.5-0.7 c-0.2-0.1-0.3-0.1-0.4-0.2l-1.2-0.8c-0.4,0.1-0.6,0.5-0.5,0.8c0,0.5,0,1,0,1.4c0,1.2,0,2.4,0,3.6c0,0.1,0.1,0.3,0.2,0.3 C18,10.9,18.8,10.9,19.7,10.9 M16.6,5.5c-0.3,0.2-0.5,0.4-0.7,0.5c-0.2,0.1-0.3,0.4-0.3,0.6c0,4.2,0,8.4,0,12.6c0,0.1,0,0.2,0,0.3 c0,0.1,0.1,0.2,0.1,0.2c0.3,0.1,0.6,0.2,0.9,0.3L16.6,5.5z M8.6,5c-0.6,0.4-1,1-1,1.8c0,1.6,0,3.1,0,4.7c0,1,0,2,0,3 c0.2,1.9-1,3.6-2.7,4.3c-0.5,0.2-1,0.4-1.5,0.6c-0.3,0.1-0.5,0-0.6-0.3C2.9,19,3,18.9,3.2,18.8c0.4-0.4,0.7-1,0.8-1.6c0-1,0-2,0-3 C3.2,14,2.5,14.4,2.3,15c0,0.1,0,0.1,0,0.2c-0.1,0.4-0.2,0.4-0.5,0.1c-0.7-0.7-0.9-1.7-0.7-2.6c0.2-1,1.1-1.7,2.1-1.7L4,10.9 c0-0.4,0-0.8,0-1.2C3.9,8.5,4.4,7.3,5.4,6.5C6.5,5.7,7.6,4.9,8.7,4c0.8-0.6,1.7-1.2,2.5-1.8l0.4-0.3c0.7,0.5,1.3,1,2,1.5 s1.5,0.9,2.2,1.3c0.4,0.2,0.6,0,0.6-0.4V3c0-0.4,0-0.4,0.5-0.4v1.5h0.1l3.1-2.2c1.4,1,3,1.8,4.7,2.2c-0.1,0.1-0.1,0.2-0.2,0.3 c-0.3,0.4-0.7,0.8-1,1.2c-0.1,0.1-0.1,0.3-0.1,0.4c0,4.2,0,8.4,0,12.5c0,0.5,0.2,1,0.5,1.5c0.3,0.5,1,0.6,1.5,0.2c0,0,0,0,0,0 c0.1-0.1,0.3,0,0.4,0c0,0,0,0.1,0,0.1l-1.5,2.1l-1,1.3c-0.1,0.1-0.2,0.2-0.3,0.2c-1.1-0.2-2-0.8-2.7-1.7c-0.5-0.8-0.8-1.8-0.8-2.8 c0-1.7,0-3.4,0-5.1c0-0.1,0-0.1,0-0.2c-0.1,0-0.1,0-0.2,0h-2.1c-0.2,0-0.3,0.1-0.3,0.3c0,1.8,0,3.7,0,5.5c0,0.3,0.2,0.4,0.4,0.5 s0.3,0.3,0.1,0.6c-0.7,0.8-1.4,1.8-2.1,2.7L15.3,24c-1.3-1.4-3-1.7-4.9-1.9c0.1-0.1,0.1-0.2,0.2-0.4c0.3-0.4,0.7-0.8,1-1.1 c0.1-0.1,0.2-0.3,0.2-0.5c0-1.9,0-3.8,0-5.7c0-0.2-0.1-0.3-0.3-0.3c-0.6,0-1.3,0-1.9,0c-0.3,0-0.4,0.1-0.4,0.4c0,2,0,4,0,5.9 c0,0.6-0.2,1.2-0.4,1.8c-0.4,1.3-1.8,2.1-3.2,1.7C5,23.8,4.5,23.6,4,23.3c-1.2-0.7-2.6-0.5-3.6,0.5c0,0.1-0.1,0.1-0.2,0.1 c-0.1,0-0.1-0.2-0.1-0.2c0.3-1.3,1.1-2.5,2.3-3.1c0.9-0.4,1.9-0.4,2.8,0.1C5.6,20.8,6,21,6.5,21.2c0.2,0.1,0.5,0.1,0.7,0.2 c0.6,0.1,1.1-0.3,1.3-0.9c0.1-0.3,0.1-0.7,0.1-1c0-4.7,0-9.4,0-14.1C8.6,5.2,8.6,5.2,8.6,5"></path>
  <style>@media (prefers-color-scheme: light){:root{filter:none;}}@media (prefers-color-scheme:dark) {:root{filter:invert(100%);}}</style>
</svg>