<svg xmlns="http://www.w3.org/2000/svg" viewBox="0 0 240.94 32.59"><defs><style>.cls-1{fill:#231e21;}</style></defs><g id="Layer_2" data-name="Layer 2"><g id="Layer_1-2" data-name="Layer 1"><path class="cls-1" d="M191.65,10.31l-6.17,4a.57.57,0,0,0-.22.38c0,.69,0,1.38,0,2.26,2.17-1.47,4.15-2.79,6.11-4.15a.76.76,0,0,0,.27-.54c0-.61,0-1.23,0-2M185.33,5.8v7.93c2.07-1.42,4-2.76,6-4.11a.8.8,0,0,0,.34-.51c.07-1.64-.26-3-2.26-3.27a28.38,28.38,0,0,0-4,0m6.25,17.38V13.49a55.36,55.36,0,0,1-4.91,3.33,2.65,2.65,0,0,0-1.45,2.91c.09,1.56,0,1.52,1.57,1.95s3.14,1,4.79,1.5M176.38,0c.39,1.66,3.21,2.6,4.85,2.39,2.79-.36,5.58-.71,8.39-.87a6.58,6.58,0,0,1,5,1.7,5.24,5.24,0,0,1,1.63,4c0,3.59,0,7.18,0,10.77a5.82,5.82,0,0,1-2.49,4.8c-1.64,1.26-3.27,2.52-5,3.7a1.61,1.61,0,0,1-1.28.07,23.07,23.07,0,0,0-7-1.47,9.61,9.61,0,0,0-4.93,1.28,1.78,1.78,0,0,1-.67.11c0-.25,0-.57.1-.74,2.17-2.84,5.38-5.09,9.48-4.52V6c-.75.08-1.49.09-2.21.23-3.37.66-5.19-.37-6.34-4.41A6.68,6.68,0,0,1,176,0Z"/><path class="cls-1" d="M240.94,26.22c-.93,1.9-2.74,3-4.19,4.36-.73.71-1.56,1.32-2.35,2-2.56-1.64-3.2-1.66-7.57-.13a4.32,4.32,0,0,1,.17-.87,5.33,5.33,0,0,1,6.24-3.29,10.85,10.85,0,0,1,2.78.8,1.11,1.11,0,0,0,1.64-.39c.48-.64.7-1.27.14-2-.2-.24-.47-.43-.65-.68-.46-.68-.9-1.39-1.42-2.21A11,11,0,0,0,234.21,25c-1.27,1.35-2.51,2.07-4.35.77-.83-.58-2.05-.61-3.29-1,1.28-.74,1-1.85,1-2.9,0-2.4,0-4.8,0-7.21,0-1.57-.09-1.67-1.81-1.88.23-.34.4-.64.61-.9.57-.7,1.18-1.38,1.73-2.1.34-.44.64-.42,1.12-.2a3.71,3.71,0,0,1,2.3,3.56q0,4.11,0,8.24c0,.69.15,1.12.89,1.27.36.07.69.29,1.05.39s1,.39,1.32.24a1.64,1.64,0,0,0,1.07-1.74c-.1-2.43,0-4.87,0-7.3a1.14,1.14,0,0,0-.74-1.3c-1-.41-.94-.58-.26-1.42s1.17-1.45,1.76-2.19l4.22,2.25c-1.35.91-1,2.25-1,3.5,0,2.12,0,4.25,0,6.37a4.38,4.38,0,0,0,1.16,3.23Z"/><path class="cls-1" d="M63.53,4.68v7H66.3c0-1.67,0-3.28,0-4.89a.94.94,0,0,0-.41-.55c-.76-.54-1.54-1-2.34-1.59m8.37,1a1.43,1.43,0,0,0-1.12,1.48q.06,6.78,0,13.55c0,.83.35,1.09,1.12,1.15Zm.77,6.11c.8,0,1.49,0,2.17,0s.86-.17.83-.8a15.16,15.16,0,0,1,0-2.43c.17-1.54-.06-2.82-1.77-3.36-.11,0-.2-.14-.3-.21-.61-.41-.92-.28-.93.46,0,2.05,0,4.11,0,6.34m-2.15,15a8.87,8.87,0,0,0-5.77-2.11,6.35,6.35,0,0,1,.71-1,2.64,2.64,0,0,0,.86-2.25c-.06-1.9,0-3.8,0-5.78H63.46c0,1.31,0,2.58,0,3.85a34.38,34.38,0,0,1-.2,4.19c-.4,2.76-2.53,3.85-5.12,2.78a6.8,6.8,0,0,0-2.58-.72,9.44,9.44,0,0,0-2.64.86c0,.05-.11-.09-.09-.2.47-2.3,2.72-5,5.94-3.63.55.24,1.08.52,1.64.71a1.57,1.57,0,0,0,2.29-1.57c0-1,0-2.05,0-3.08V5.1a2.1,2.1,0,0,0-1.11,2.14c0,2.65-.1,5.31,0,8A5.26,5.26,0,0,1,57.85,21c-.52.19-1,.4-1.82.7a16.54,16.54,0,0,0,1.19-2.95,16.71,16.71,0,0,0,.05-3.09c-1.3-.38-1.65.49-2,1.35a2.88,2.88,0,0,1-1.43-3c.23-1.4,1-1.95,3.3-2.26a12,12,0,0,1,.25-2.07,5.19,5.19,0,0,1,1.1-2.48c2.43-2,5-3.81,7.58-5.65.15-.11.61.1.85.26,1.37.88,2.71,1.79,4.07,2.67.62.4.93.2.92-.53a10.88,10.88,0,0,1,0-1.4c0-.14.25-.27.38-.4.11.13.29.25.3.38,0,.4,0,.79,0,1.4,1.14-.82,2.1-1.54,3.1-2.2a1.07,1.07,0,0,1,.88-.11c1.64.81,3.26,1.68,5,2.57,0-.15,0-.06,0,0C80.17,5.28,80,6.83,80,8.6c.12,3.64,0,7.3,0,11V20c0,2.07.74,2.71,2.81,2.3a4.28,4.28,0,0,1-.26.67c-.79,1.13-1.56,2.27-2.39,3.36a1,1,0,0,1-.82.3A4.55,4.55,0,0,1,75.67,22c0-2.12,0-4.24,0-6.43h-3c0,1.61,0,3.23,0,4.84,0,.82-.36,1.76.51,2.43.07,0,0,.38-.06.5-.84,1.11-1.7,2.21-2.62,3.39"/><path class="cls-1" d="M20.78,19.78c.39,1.67-2.56,5.4-5.17,6.42-4.38,1.73-11.06.89-13.9-3.65A10.71,10.71,0,0,1,3.27,9C5.14,7.3,7.45,6.08,8.14,6.58,7.58,7.2,7,7.83,6.48,8.46,4,11.33,3.69,18,6.17,20.75a6.56,6.56,0,0,0,4.41,2.41,30.49,30.49,0,0,0,4.85-.28.93.93,0,0,0,.57-.71Q16,15,16,7.85a.9.9,0,0,0-.47-.71C13.16,6.58,10.79,6,8.39,5.57a32.26,32.26,0,0,0-4.17-.48,3.27,3.27,0,0,0-2.53,1c-.19.19-.41.34-.84.69a3.88,3.88,0,0,1,.05-.9C2.22,2.1,4.67.49,8.89,1.23c1.93.33,3.8,1,5.73,1.42A14.5,14.5,0,0,0,18.39,3a8.53,8.53,0,0,0,2.31-.91A2.14,2.14,0,0,1,21.28,2c0,.17.1.38,0,.5C20.56,3.76,19.83,5.06,19,6.27a2.28,2.28,0,0,1-1.43.79c-.77.1-1,.39-.95,1.13,0,4.46,0,8.92,0,13.38,0,.27,0,.54.06,1.17l4.12-3"/><path class="cls-1" d="M25.52,26.78l-4.18-2.31c0-.08,0-.17,0-.2,1.06-.93.89-2.16.89-3.37,0-4.18,0-8.36,0-12.54,0-1.19.29-2.47-.93-3.27L27,1.82l.25.11c-1.78,3.34-.74,6.88-1.13,10.6,1.29-1,2.36-1.78,3.37-2.63A1,1,0,0,1,31,9.83c1.34.91,2.78,1.67,4.2,2.51,0,0,0,.12,0,.14-1,.87-.91,2-.89,3.17,0,2.19-.07,4.37,0,6.55.1,2.38-1.1,3.28-2.71,4-.45.21-.87.51-1.31.77l0,.33c.68.25,1.36.52,2,.74.85.28,1.69.56,1.75,1.66a2.12,2.12,0,0,1-1.56,2.2,3.8,3.8,0,0,1-3.15.25c.49-.23.8-.36,1.09-.52A.89.89,0,0,0,30.67,30a8.54,8.54,0,0,0-.86-.57c-1.09-.72-1.38-1.69-.56-2.69A5.38,5.38,0,0,0,30.36,23c0-2.62,0-5.24,0-7.86,0-.72-.08-1.27-.86-1.54a6,6,0,0,1-.79-.49c-.39-.18-.95-.57-1.18-.43-.65.38-1.41.75-1.38,1.79.07,2.34.05,4.68,0,7,0,.79.08,1.4.95,1.66a4,4,0,0,1,.85.6c-.83,1-1.63,2-2.44,3"/><path class="cls-1" d="M101.42,24.35c1.31-.92,1-2.26,1-3.51,0-4.31,0-8.62,0-12.92,0-1.06.2-2.17-.93-2.83l5.8-3.28.23.12c-1.84,3.31-.89,6.86-1.19,10.61l4.06-3.13,5.27,3c-1.3.77-1,2-1,3.12,0,2.21,0,4.43,0,6.65A3.74,3.74,0,0,1,112.3,26a4.4,4.4,0,0,0-.76.36c-.3.23-.56.52-.84.78a8.39,8.39,0,0,0,1,.61c.66.28,1.38.44,2,.77a1.45,1.45,0,0,1,.64,1.94c-.5,1.41-3,2.39-4.55,1.67l1-.48c.93-.5,1-1.19.09-1.78-.2-.14-.44-.24-.65-.37-1.13-.71-1.44-1.74-.62-2.77a6,6,0,0,0,1.14-4c0-2.62,0-5.24,0-7.86a1.82,1.82,0,0,0-.57-1,2.51,2.51,0,0,0-.86-.56c-.49-.23-1.17-.71-1.49-.54a2.07,2.07,0,0,0-1.38,2.08c.13,2.21.07,4.43,0,6.64,0,.78.05,1.4.92,1.67a4.4,4.4,0,0,1,.94.63l-2.46,3-4.36-2.43"/><path class="cls-1" d="M129.17,17.4c0,1.06.08,2.13,0,3.18-.13,1.27.11,2.18,1.56,2.39a2.84,2.84,0,0,1,.68.33,1.46,1.46,0,0,0,2.06-1.3c0-2.49,0-5,0-7.48,0-.51-.21-.69-.65-.86a28.55,28.55,0,0,1-2.63-1.23c-.77-.4-1-.3-1,.57,0,1.47,0,2.94,0,4.4m-5.07,7.45c1.39-.86,1.11-2,1.11-3,0-2.53,0-5.06,0-7.58a1.44,1.44,0,0,1,.52-1c1.83-1.2,3.71-2.32,5.54-3.52a1,1,0,0,1,1.15,0c1.62.74,3.28,1.37,4.93,2,.31.13.63.24,1.15.43-1.43.93-1.11,2.23-1.11,3.45,0,2.24,0,4.49,0,6.73a2.9,2.9,0,0,0,.52,1.53,2.46,2.46,0,0,1,.12,3.16,15.06,15.06,0,0,1-1.88,2c-1.37,1.23-2.78,2.41-4.21,3.65-2.42-1.93-4.91-1.56-7.51-.1a2.94,2.94,0,0,1,0-.75,5.58,5.58,0,0,1,6-3.58,32,32,0,0,1,3.16.84c.4.12.77.66,1.23.09s.89-1.11.55-1.85a8.58,8.58,0,0,0-.81-1.12c-.46-.67-.9-1.35-1.43-2.15l-1.53,1.19a13.22,13.22,0,0,0-1.16.94,1.34,1.34,0,0,1-1.86.18,23.11,23.11,0,0,0-3.43-1.18c-.23-.07-.47-.11-1.06-.25"/><path class="cls-1" d="M153.11,12.78c.95-1.13,1.82-2.21,2.73-3.25.08-.09.4,0,.58,0a3.82,3.82,0,0,1,2.59,3c1.15-.9,2.22-1.64,3.18-2.51.69-.64,1.17-.57,1.91-.06,1.27.88,2.66,1.6,4.12,2.46-1.52,1.07-1,2.62-1,4s0,3.06,0,4.58c0,2,0,2,2,2.33-.56.7-1.08,1.34-1.6,2-.13.17-.29.32-.43.49-.85,1-1.31,1.08-2.33.21a4.58,4.58,0,0,1-1.57-3.66c0-2.46,0-4.93,0-7.39,0-.62-.09-1.09-.75-1.32-.28-.1-.51-.35-.8-.48-.44-.21-1-.63-1.33-.49A2,2,0,0,0,159,14.63c.08,2.27,0,4.55,0,6.83,0,.78.06,1.39.93,1.67a3.72,3.72,0,0,1,.88.64l-2.42,3c-1.46-.81-2.84-1.58-4.36-2.41,1.37-1,1.05-2.43,1.06-3.77,0-1.84,0-3.68,0-5.52s-.09-2-2-2.29"/><path class="cls-1" d="M142,13.63l2.53,2.07c.83.67,1.68,1.33,2.66,2.11,0-1.31,0-2.41,0-3.52a.9.9,0,0,0-.34-.59,15,15,0,0,0-1.58-1,1,1,0,0,0-.67-.09c-.84.3-1.67.65-2.59,1M147.2,21c0-.57,0-1.13,0-1.69a1,1,0,0,0-.21-.67,26.28,26.28,0,0,0-2.21-1.73A.81.81,0,0,0,144,17a3.81,3.81,0,0,0-.76,1.06c-.92,1.7-.87,4.56,1.48,5.64,1.35.62,2.46,0,2.46-1.48V21M143.56,16l-3.47-2.82,3.15-2.65c1.16.89,2.42.51,3.62-.67a1,1,0,0,1,.88-.11c1.45.79,2.86,1.65,4.31,2.5a.12.12,0,0,1,0,.1c-1.13,1-.87,2.3-.87,3.55,0,1.78,0,3.56,0,5.34s.1,1.9,2,2.15c-.94,1.14-1.8,2.22-2.72,3.26-.11.12-.52.07-.76,0a4,4,0,0,1-2.36-2.45c-1.23.76-2.44,1.46-3.58,2.24a1.45,1.45,0,0,1-1.56.12,5.12,5.12,0,0,1-1.45-8.67A25.73,25.73,0,0,1,143.56,16"/><path class="cls-1" d="M199.75,13.54l5.39,4.34c0-1.38,0-2.54,0-3.71,0-.17-.2-.38-.36-.48-.67-.44-1.36-.85-1.87-1.15l-3.14,1m2.63,3.14a4.18,4.18,0,0,0,.57,7.21,1.68,1.68,0,0,0,2.2-1.36c0-1,0-2,0-3a1.37,1.37,0,0,0-.29-.92c-.78-.7-1.64-1.31-2.46-1.95M198,13.14l3-2.82c1.65,1.31,3,.38,4.1-.89l5.06,2.84c-1.28.78-1,2.05-1,3.25,0,1.9,0,3.8,0,5.7s0,1.88,2,2.11c-1,1.14-1.83,2.21-2.75,3.24a.76.76,0,0,1-.73,0c-.88-.65-1.72-1.36-2.77-2.2-.55.34-1.34.87-2.18,1.32s-1.28,1.29-2.31.9a5,5,0,0,1-3.09-2.82,5.22,5.22,0,0,1,2.52-6.84c.52-.28,1.05-.54,1.76-.9-1.23-1-2.35-1.89-3.59-2.89"/><path class="cls-1" d="M41.45,17.59,44.14,16l-2.69-4.12Zm4,5.59a8.72,8.72,0,0,1,.82-1c.15-.14.46-.1.7-.14,0,.21.11.5,0,.63-1.06,1.38-2.16,2.73-3.09,3.9l-7.39-2.3c1.23-1,.74-2.49.77-3.84,0-2.25,0-4.5,0-6.74A1.1,1.1,0,0,1,38,12.55c1.87-1,3.71-2,5.54-3,.42-.23.68-.22.94.16l3.53,5.17L43.4,17.63l-.08,0a2.69,2.69,0,0,0-2,3.35c.1.61.21.92.84,1.09,1.08.28,2.13.69,3.3,1.07"/><path class="cls-1" d="M219.15,24.3c1.12-.74,1.09-1.76,1.09-2.81,0-4.27,0-8.55,0-12.82,0-1.29.43-2.71-.9-3.6l5.81-3.27c0,.28,0,.46,0,.56a9.11,9.11,0,0,0-.94,4.71q0,7.15,0,14.31c0,.86.09,1.51,1,1.8a3.16,3.16,0,0,1,.79.56l-2.46,3-4.36-2.46"/><path class="cls-1" d="M96.75,9.6l4.18,1.61a2.84,2.84,0,0,1-1.66,2.37c-1.41.72-2.73.29-3.94-.86a6.25,6.25,0,0,0-.09.69c0,2.56,0,5.11,0,7.67,0,.62.22.85.79,1,1.1.32,2.18.72,3.23,1.07.69-.18.64-1.64,2-.93l-3.41,4.31L90.4,24.28c1.33-1.05.83-2.62.86-4.06,0-2.24,0-4.49,0-6.73a1.23,1.23,0,0,1,.42-.91c1.69-1.05,3.42-2,5-3"/><path class="cls-1" d="M213.43,9.37l4.25,2.26c-1.36.86-1.05,2.16-1.05,3.38,0,2.12,0,4.23,0,6.35,0,1.66.13,1.8,2,1.94-.74.91-1.4,1.74-2.08,2.56-1,1.14-1.1,1.15-2.32.22a4.59,4.59,0,0,1-1.64-3.89c0-2.5,0-5,0-7.48,0-.89-.11-1.57-1-1.91a3.85,3.85,0,0,1-.58-.4l2.45-3"/><path class="cls-1" d="M123.8,23.36c-.94,1.13-1.8,2.22-2.73,3.24-.12.14-.65,0-.92-.11a4.07,4.07,0,0,1-2.31-4c0-2.58,0-5.17,0-7.75,0-.91,0-1.67-1.07-2-.16-.05-.28-.24-.51-.45.81-1,1.6-2,2.4-3l4.2,2.26c-1.68,1.26-1,3-1.06,4.59s0,3.24,0,4.86c0,1.85.08,1.95,2,2.25"/><path class="cls-1" d="M84.71,9.37l4.16,2.26c-1.46,1-.92,2.6-1,4-.06,1.83,0,3.67,0,5.51s0,1.91,2,2.21c-1,1.15-1.86,2.25-2.8,3.31-.08.09-.41,0-.58,0A3.76,3.76,0,0,1,84,23.12c0-2.9,0-5.79,0-8.69,0-.69-.09-1.19-.82-1.48s-.89-.67-.28-1.32,1.23-1.48,1.86-2.26"/><path class="cls-1" d="M175.78,17.06A3,3,0,0,1,174.72,14,2.37,2.37,0,0,1,176.87,12c.95-.1,1.2-.54,1.42-1.4a5.11,5.11,0,0,1,1.34-2.16,7.57,7.57,0,0,1,4.13-1.77,1.9,1.9,0,0,1-.15.58,5.4,5.4,0,0,0-1.17,3.92c0,1.9-.05,3.8,0,5.7A3.58,3.58,0,0,1,180.94,20a28.68,28.68,0,0,1-3.11,1.9c-.14.08-.38,0-.57,0a1.41,1.41,0,0,1,.1-.48c1.19-1.64.81-3.52.83-5.33,0-.15-.52-.47-.6-.42-.58.39-1.11.85-1.81,1.41"/><path class="cls-1" d="M9.63,10.69l-1.36.58c.07-.44,0-.91.18-1,1.81-1,3.66-1.87,5.67-2.88V9.48c0,2.12,0,4.24,0,6.36a5.08,5.08,0,0,1-2.47,4.63,19.7,19.7,0,0,1-2.3,1.26c-.17.09-.46-.05-.7-.08a6.13,6.13,0,0,1,.22-.6c.24-.49.7-1,.71-1.46.07-2.92,0-5.85,0-8.9"/><path class="cls-1" d="M118.89,3.27a14.08,14.08,0,0,0,1.91,1.1,12.82,12.82,0,0,0,2.08.46A2.82,2.82,0,0,1,120,7.41a11.47,11.47,0,0,1-2.79-.94c-.46-.18-.54-.56-.18-1,.66-.74,1.29-1.51,1.89-2.22"/><path class="cls-1" d="M217.8,4.73a3.5,3.5,0,0,1-5.93,1.63.87.87,0,0,1-.05-.83,14.82,14.82,0,0,1,1.46-1.81c.16-.17.63-.32.73-.23a5.4,5.4,0,0,0,3.79,1.24"/><path class="cls-1" d="M84.75,3.48,88.93,5A2.81,2.81,0,0,1,87,7.25a4.19,4.19,0,0,1-3.71-.73c-.21-.16-.45-.67-.36-.8.61-.84,1.31-1.63,1.81-2.24"/></g></g></svg>