<?xml version="1.0" standalone="no"?>
<!DOCTYPE svg PUBLIC "-//W3C//DTD SVG 20010904//EN" "http://www.w3.org/TR/2001/REC-SVG-20010904/DTD/svg10.dtd">
<svg version="1.0" xmlns="http://www.w3.org/2000/svg" width="832.000000pt" height="832.000000pt" viewBox="0 0 832.000000 832.000000" preserveAspectRatio="xMidYMid meet">
  <metadata>
Created by potrace 1.14, written by Peter Selinger 2001-2017
</metadata>
  <g transform="translate(0.000000,832.000000) scale(0.100000,-0.100000)" fill="#000000" stroke="none">
    <path d="M3695 7670 c-22 -16 -45 -33 -51 -38 -6 -5 -42 -31 -80 -58 -38 -26
-96 -68 -129 -91 -33 -24 -91 -65 -130 -91 -38 -26 -72 -49 -75 -53 -3 -3 -43
-31 -89 -63 -46 -32 -89 -62 -95 -67 -12 -10 -109 -80 -210 -150 -33 -23 -65
-46 -70 -51 -6 -5 -92 -67 -191 -138 -99 -71 -185 -133 -190 -137 -6 -5 -28
-21 -50 -38 -22 -16 -44 -33 -50 -37 -9 -8 -84 -63 -143 -106 -29 -20 -153
-113 -167 -124 -5 -4 -44 -33 -85 -65 -41 -31 -76 -60 -78 -65 -2 -4 -8 -8
-13 -8 -11 0 -149 -111 -194 -157 -46 -46 -118 -133 -152 -183 -53 -79 -129
-233 -138 -280 -2 -8 -4 -16 -5 -17 -2 -2 -3 -6 -4 -10 -2 -5 -8 -28 -15 -53
-7 -25 -14 -54 -16 -65 -1 -11 -6 -40 -11 -65 -4 -25 -8 -179 -8 -343 -1 -339
10 -304 -96 -311 -297 -21 -339 -29 -468 -92 -71 -36 -110 -63 -165 -118 -40
-39 -82 -85 -95 -103 -53 -77 -103 -202 -127 -321 -10 -51 -13 -208 -5 -255 5
-23 11 -58 15 -77 3 -19 7 -39 9 -45 2 -5 6 -23 11 -40 8 -32 87 -196 104
-217 129 -159 161 -188 204 -188 34 0 52 27 82 126 42 138 131 239 252 284 65
24 165 32 223 18 l38 -10 0 -495 c-1 -454 -2 -503 -20 -587 -11 -50 -26 -98
-34 -107 -8 -8 -14 -22 -14 -31 0 -8 -11 -32 -25 -52 -14 -20 -25 -39 -25 -43
0 -13 -72 -95 -157 -179 l-92 -92 29 -40 c16 -22 37 -43 47 -46 46 -14 71 -13
106 4 20 10 37 17 37 15 0 -2 28 9 63 24 66 30 96 42 112 47 19 6 220 90 230
96 6 4 40 18 76 31 89 34 248 121 296 162 6 5 26 21 45 34 61 45 213 205 265
281 84 124 177 322 199 425 9 43 16 81 19 100 2 11 7 38 11 60 4 22 8 679 9
1460 1 781 4 1429 7 1440 3 11 11 40 18 65 15 56 63 153 98 200 60 80 179 179
200 167 14 -9 8 -4718 -7 -4800 -42 -242 -105 -343 -251 -406 -70 -31 -185
-36 -289 -15 -69 14 -196 59 -245 87 -12 6 -23 12 -26 12 -3 1 -54 25 -115 54
-120 58 -261 121 -285 126 -8 3 -42 12 -75 21 -33 9 -69 18 -80 21 -11 3 -75
7 -142 9 -105 3 -159 -1 -273 -21 -32 -5 -136 -39 -175 -56 -33 -14 -177 -99
-185 -108 -3 -3 -23 -19 -45 -36 -47 -35 -102 -83 -163 -145 -50 -51 -182
-217 -182 -230 0 -5 -14 -29 -30 -54 -25 -36 -70 -124 -75 -146 -3 -9 -25 -65
-35 -85 -22 -47 -57 -193 -55 -228 3 -50 29 -71 65 -52 14 7 34 24 46 37 32
36 70 66 143 113 126 81 245 125 405 149 21 4 43 9 49 13 6 3 7 1 3 -5 -4 -7
-2 -10 7 -6 19 7 97 11 97 4 0 -3 17 -5 38 -6 114 -2 239 -37 375 -106 158
-79 350 -150 552 -204 126 -33 297 -41 395 -18 36 9 70 17 75 18 24 4 133 52
167 73 21 13 40 23 44 23 10 0 106 82 152 130 24 25 59 69 79 98 34 52 101
188 108 221 2 9 13 43 25 76 11 33 20 61 20 63 0 1 1 4 1 7 1 3 3 10 4 15 1 6
4 12 5 15 3 6 2 4 15 60 5 22 9 42 10 45 1 3 5 30 9 60 5 30 10 64 12 75 3 11
6 62 9 113 2 51 7 97 10 102 3 5 1 11 -4 14 -5 3 -6 21 -1 39 4 18 4 42 0 52
-4 11 -4 29 0 39 3 11 3 37 0 58 -4 21 -4 38 -1 38 6 0 6 40 -2 95 -2 17 -1
39 3 50 4 10 3 36 0 57 -4 21 -4 38 -1 38 6 0 5 48 -3 105 -1 11 1 30 6 42 4
12 3 25 -1 28 -5 3 -6 20 -2 38 5 18 5 41 1 52 -4 11 -4 29 0 39 4 11 4 37 0
58 -4 21 -4 38 -1 38 6 0 6 40 -2 95 -2 17 -1 39 3 50 4 10 3 36 0 57 -4 21
-4 38 -1 38 6 0 5 48 -3 105 -1 11 1 30 6 42 4 13 3 25 -3 28 -5 4 -7 11 -3
16 6 10 7 106 1 149 -2 14 0 34 4 45 3 11 3 29 -1 40 -4 11 -4 30 1 42 5 14 4
23 -4 27 -9 3 -9 5 0 5 9 1 10 8 4 24 -5 12 -5 31 -1 42 4 11 6 23 4 27 -10
17 -2 198 10 217 18 28 70 32 408 32 354 0 401 -4 404 -39 1 -6 3 -13 4 -14 3
-3 11 -943 9 -993 0 -15 0 -419 1 -470 1 -76 -9 -454 -12 -465 -14 -44 -50
-103 -88 -140 -8 -8 -42 -46 -75 -85 -61 -71 -118 -135 -145 -164 -47 -51
-129 -177 -118 -182 2 -1 12 -3 23 -4 11 -1 45 -6 75 -10 30 -4 71 -9 90 -11
19 -2 49 -5 65 -8 17 -2 53 -7 80 -11 28 -4 52 -8 55 -10 3 -2 30 -6 60 -10
30 -4 58 -9 61 -11 3 -2 21 -6 40 -9 65 -11 227 -55 315 -86 85 -29 323 -139
348 -160 6 -5 46 -33 89 -61 42 -27 77 -54 77 -59 0 -5 5 -9 10 -9 11 0 53
-36 121 -102 45 -44 61 -47 83 -14 8 14 27 36 41 50 14 14 25 29 25 35 0 5 4
11 8 13 5 2 98 120 207 263 110 143 205 266 212 273 7 7 13 16 13 20 0 4 15
23 33 43 17 20 44 52 59 70 33 42 62 76 92 110 33 35 58 99 51 128 -7 28 -30
51 -98 98 -90 62 -82 -33 -85 1012 -2 672 1 933 9 953 8 20 21 29 48 34 27 6
706 10 768 5 9 -1 12 -228 13 -933 1 -972 2 -1028 10 -1028 3 0 6 -8 6 -17 4
-142 132 -487 232 -623 46 -63 226 -234 309 -293 64 -45 274 -163 298 -167 10
-1 41 -12 60 -21 38 -16 203 -60 216 -57 48 10 91 58 244 273 90 127 168 235
172 240 28 34 83 117 83 124 0 5 4 11 8 13 4 1 23 26 42 53 19 28 37 52 40 55
3 3 34 48 70 100 35 52 68 100 73 105 26 32 130 183 137 200 12 30 -4 41 -64
44 -43 1 -63 -3 -93 -22 -159 -98 -343 -56 -470 108 -37 49 -103 173 -103 195
0 9 -3 20 -7 24 -8 7 -8 8 -22 91 -9 47 -18 1217 -11 1310 1 11 1 26 1 33 -2
26 -2 52 -2 237 -1 105 0 199 1 210 1 11 1 26 1 33 -2 26 -2 52 -2 237 -1 105
0 199 1 210 1 11 1 26 1 33 -2 26 -2 52 -2 237 -1 105 0 199 1 210 1 11 1 26
1 33 -2 26 -2 52 -2 237 -1 105 0 199 1 210 1 11 1 26 1 33 -2 31 -2 64 -2
317 -1 149 0 279 1 290 1 11 1 26 1 33 -1 19 -2 40 -2 153 0 157 9 182 109
302 46 56 92 109 101 118 9 9 27 29 40 45 14 16 47 56 76 89 28 33 64 79 80
103 33 49 30 55 -40 72 -22 6 -78 22 -125 36 -47 14 -89 27 -95 28 -5 1 -14 4
-20 7 -5 4 -28 12 -50 18 -50 15 -186 67 -242 92 -24 11 -45 19 -48 19 -2 0
-48 21 -101 46 -53 25 -106 50 -118 55 -35 16 -180 97 -281 157 -82 49 -262
168 -306 203 l-36 28 -47 -29 c-26 -17 -53 -35 -59 -41 -7 -6 -104 -75 -217
-155 -113 -80 -214 -152 -225 -159 -11 -8 -58 -42 -105 -75 -47 -33 -95 -67
-108 -77 -88 -65 -246 -173 -253 -173 -10 0 -10 -4 -11 268 0 141 -4 205 -12
208 -32 12 -107 8 -127 -6 -20 -16 -21 -24 -23 -301 -2 -314 -5 -333 -67 -364
-42 -22 -87 -13 -183 39 -136 73 -239 128 -291 155 -27 14 -52 28 -55 31 -3 3
-25 16 -50 29 -121 65 -394 249 -530 358 -8 6 -58 45 -110 85 -52 40 -99 76
-105 80 -49 40 -165 128 -167 128 -2 0 -21 -14 -43 -30z m-495 -1064 c8 -6 70
-47 138 -91 131 -86 133 -87 243 -155 93 -57 139 -102 140 -138 1 -34 1 -1395
0 -1402 -1 -3 -172 -6 -382 -5 l-381 0 -19 24 c-10 13 -19 33 -20 45 -3 62 -4
1932 -1 1938 1 4 62 -40 135 -98 73 -58 139 -111 147 -118z m2618 52 c108 -72
199 -134 202 -137 13 -16 119 -71 142 -75 29 -5 90 -40 104 -60 36 -51 37 -89
38 -829 1 -483 -2 -731 -9 -735 -11 -8 -762 -11 -783 -4 -7 2 -20 21 -28 41
-14 32 -16 138 -16 891 0 470 1 864 1 876 2 33 54 104 101 135 24 16 45 29 47
29 2 0 92 -59 201 -132z m-519 -2409 l-2 -2311 -21 7 c-12 3 -25 7 -31 9 -5 2
-17 5 -25 9 -8 3 -60 20 -114 38 -55 18 -108 42 -118 53 -17 19 -18 97 -18
2115 0 2062 1 2097 20 2139 21 47 39 65 115 114 28 18 52 36 53 40 2 5 10 8
18 8 8 0 14 4 14 8 0 4 14 16 31 26 18 10 40 27 50 37 11 11 21 19 24 19 3 0
5 -1040 4 -2311z" />
  </g>
</svg>