<svg xmlns="http://www.w3.org/2000/svg" viewBox="0 0 25.93 22.11"><g id="Layer_2" data-name="Layer 2"><g id="Layer_1-2" data-name="Layer 1"><path d="M9.09,2.68V6.83c0,.64,0,1.28,0,1.92,0,.09.1.25.16.25C10,9,10.82,9,11.6,9a.54.54,0,0,0,0-.12c0-1.43,0-2.85,0-4.28a.4.4,0,0,0-.18-.25c-.46-.31-.93-.58-1.37-.89s-.63-.5-1-.79M19.65,9V8.59c0-1.32,0-2.63,0-3.95,0-.37-.05-.63-.45-.73a1.39,1.39,0,0,1-.43-.23l-1.25-.84a.73.73,0,0,0-.48.85c0,.48,0,1,0,1.44,0,1.19,0,2.37,0,3.56,0,.11.1.3.16.31.79,0,1.59,0,2.42,0M16.52,3.55c-.27.19-.48.36-.71.5a.64.64,0,0,0-.32.62q0,6.27,0,12.55a1.13,1.13,0,0,0,0,.26c0,.07.07.17.13.19.28.11.57.2.89.3Zm-8-.48a2,2,0,0,0-1,1.77c0,1.57,0,3.14,0,4.71,0,1,0,2,0,3a4.16,4.16,0,0,1-2.73,4.29c-.49.22-1,.4-1.48.62-.3.13-.47,0-.59-.27.13-.12.27-.24.39-.37a2.38,2.38,0,0,0,.75-1.56c0-1,0-2,0-3a1.26,1.26,0,0,0-1.62,1c-.12.38-.25.41-.53.13A2.72,2.72,0,0,1,1,10.79,2.2,2.2,0,0,1,3.06,9.07L3.91,9c0-.43,0-.84,0-1.25A3.69,3.69,0,0,1,5.34,4.59C6.44,3.73,7.57,2.92,8.7,2.1,9.54,1.49,10.39.9,11.24.3L11.65,0c.69.52,1.34,1.05,2,1.51s1.49.87,2.24,1.28c.35.19.61,0,.62-.4V1.1c0-.42,0-.42.5-.37V2.2l.08,0L20.19,0a13,13,0,0,0,4.66,2.21,2.06,2.06,0,0,1-.2.33c-.33.39-.68.77-1,1.16a.76.76,0,0,0-.15.41q0,6.27,0,12.55A2.18,2.18,0,0,0,24,18.11a1.05,1.05,0,0,0,1.48.22c.1-.07.28,0,.43,0a.5.5,0,0,0,0,.12l-1.5,2.13-.95,1.33c-.07.09-.25.19-.33.16a4.7,4.7,0,0,1-2.72-1.71,4.92,4.92,0,0,1-.75-2.8c0-1.69,0-3.38,0-5.06,0-.07,0-.13,0-.22a2.07,2.07,0,0,0-.22,0H17.36c-.23,0-.31.07-.31.3,0,1.83,0,3.66,0,5.49,0,.31.18.42.38.54s.3.3.09.56C16.8,20,16.1,21,15.4,21.87l-.19.21c-1.31-1.37-3-1.71-4.87-1.89a2.21,2.21,0,0,1,.2-.36c.32-.38.66-.75,1-1.15a.83.83,0,0,0,.17-.46c0-1.89,0-3.77,0-5.66,0-.24-.06-.34-.33-.34-.64,0-1.29,0-1.93,0-.27,0-.35.08-.35.35,0,2,0,4,0,5.95a5.9,5.9,0,0,1-.37,1.81A2.55,2.55,0,0,1,5.56,22a8.37,8.37,0,0,1-1.65-.6,3,3,0,0,0-3.57.47A.29.29,0,0,1,.12,22c-.06,0-.14-.17-.12-.23a4.58,4.58,0,0,1,2.34-3.15,3.31,3.31,0,0,1,2.82.06c.42.19.83.41,1.25.58a2.27,2.27,0,0,0,.73.16,1.15,1.15,0,0,0,1.27-.9,3.94,3.94,0,0,0,.15-1q0-7.08,0-14.15c0-.07,0-.13,0-.24"/></g></g></svg>